<?xml version="1.0" encoding="utf-8"?>
<!-- Generator: Adobe Illustrator 23.1.0, SVG Export Plug-In . SVG Version: 6.00 Build 0)  -->
<svg version="1.1" id="Layer_1" xmlns="http://www.w3.org/2000/svg" xmlns:xlink="http://www.w3.org/1999/xlink" x="0px" y="0px"
	 viewBox="0 0 22 22" style="enable-background:new 0 0 22 22;" xml:space="preserve">
<style type="text/css">
	.st0{fill:#906E50;}
</style>
<g>
	<path class="st0" d="M18.18,3.84C16.33,2,13.8,0.86,11,0.86C8.21,0.86,5.67,2,3.84,3.84C2,5.67,0.86,8.2,0.86,11
		S2,16.33,3.84,18.18c1.83,1.83,4.37,2.96,7.16,2.96c2.8,0,5.33-1.13,7.18-2.96c1.83-1.84,2.97-4.37,2.97-7.18
		C21.15,8.2,20.01,5.67,18.18,3.84 M11,0c3.05,0,5.8,1.23,7.78,3.22C20.77,5.22,22,7.97,22,11s-1.23,5.78-3.22,7.78
		C16.8,20.77,14.03,22,11,22s-5.78-1.23-7.78-3.22C1.23,16.78,0,14.03,0,11c0-3.05,1.23-5.78,3.22-7.78C5.22,1.23,7.97,0,11,0"/>
	<path class="st0" d="M14.56,11c0-1.96-1.59-3.56-3.56-3.56c-1.96,0-3.56,1.59-3.56,3.56s1.59,3.56,3.56,3.56
		C12.97,14.56,14.56,12.97,14.56,11 M14.49,6.96c-0.32,0-0.57,0.25-0.57,0.57c0,0.32,0.25,0.57,0.57,0.57s0.57-0.25,0.57-0.57
		C15.07,7.22,14.8,6.96,14.49,6.96 M8.09,6.14h5.82c1.07,0,1.96,0.87,1.96,1.96v5.82c0,1.07-0.87,1.96-1.96,1.96H8.09
		c-1.07,0-1.95-0.87-1.95-1.96V8.1C6.14,7.02,7.02,6.14,8.09,6.14 M13.91,5.49H8.09c-1.43,0-2.6,1.17-2.6,2.6v5.82
		c0,1.43,1.18,2.6,2.6,2.6h5.82c1.44,0,2.61-1.18,2.61-2.6V8.09C16.52,6.66,15.35,5.49,13.91,5.49 M8.19,11
		c0-1.55,1.26-2.82,2.81-2.82c1.56,0,2.82,1.26,2.82,2.82s-1.26,2.82-2.82,2.82C9.45,13.82,8.19,12.56,8.19,11"/>
</g>
</svg>
