<?xml version="1.0" encoding="utf-8"?>
<!-- Generator: Adobe Illustrator 23.1.0, SVG Export Plug-In . SVG Version: 6.00 Build 0)  -->
<svg version="1.1" id="Layer_1" xmlns="http://www.w3.org/2000/svg" xmlns:xlink="http://www.w3.org/1999/xlink" x="0px" y="0px"
	 viewBox="0 0 22 22" style="enable-background:new 0 0 22 22;" xml:space="preserve">
<style type="text/css">
	.st0{fill:#906E50;}
</style>
<g>
	<path class="st0" d="M18.2,3.8c-1.9-1.8-4.4-3-7.2-3c-2.8,0-5.3,1.1-7.2,3c-1.8,1.8-3,4.4-3,7.2s1.1,5.3,3,7.2c1.8,1.8,4.4,3,7.2,3
		c2.8,0,5.3-1.1,7.2-3c1.8-1.8,3-4.4,3-7.2C21.1,8.2,20,5.7,18.2,3.8 M11,0c3.1,0,5.8,1.2,7.8,3.2c2,2,3.2,4.8,3.2,7.8
		s-1.2,5.8-3.2,7.8c-2,2-4.8,3.2-7.8,3.2s-5.8-1.2-7.8-3.2C1.2,16.8,0,14,0,11c0-3.1,1.2-5.8,3.2-7.8C5.2,1.2,8,0,11,0"/>
	<path class="st0" d="M14.6,11c0-2-1.6-3.6-3.6-3.6C9,7.4,7.4,9,7.4,11S9,14.6,11,14.6C13,14.6,14.6,13,14.6,11 M14.5,7
		c-0.3,0-0.6,0.3-0.6,0.6s0.3,0.6,0.6,0.6s0.6-0.3,0.6-0.6C15.1,7.2,14.8,7,14.5,7 M8.1,6.1h5.8c1.1,0,2,0.9,2,2v5.8
		c0,1.1-0.9,2-2,2H8.1c-1.1,0-1.9-0.9-1.9-2V8.1C6.1,7,7,6.1,8.1,6.1 M13.9,5.5H8.1c-1.4,0-2.6,1.2-2.6,2.6v5.8
		c0,1.4,1.2,2.6,2.6,2.6h5.8c1.4,0,2.6-1.2,2.6-2.6V8.1C16.5,6.7,15.4,5.5,13.9,5.5 M8.2,11c0-1.6,1.3-2.8,2.8-2.8
		c1.6,0,2.8,1.3,2.8,2.8s-1.3,2.8-2.8,2.8C9.4,13.8,8.2,12.6,8.2,11"/>
</g>
</svg>
