<?xml version="1.0" encoding="utf-8"?>
<!-- Generator: Adobe Illustrator 23.1.0, SVG Export Plug-In . SVG Version: 6.00 Build 0)  -->
<svg version="1.1" id="Layer_1" xmlns="http://www.w3.org/2000/svg" xmlns:xlink="http://www.w3.org/1999/xlink" x="0px" y="0px"
	 viewBox="0 0 300 50" style="enable-background:new 0 0 300 50;" xml:space="preserve">
<style type="text/css">
	.st0{fill-rule:evenodd;clip-rule:evenodd;fill:url(#SVGID_1_);}
	.st1{fill-rule:evenodd;clip-rule:evenodd;fill:url(#SVGID_2_);}
</style>
<g>
	
		<linearGradient id="SVGID_1_" gradientUnits="userSpaceOnUse" x1="-14.6592" y1="500.8195" x2="66.1777" y2="462.2624" gradientTransform="matrix(1 0 0 -1 0 507.9)">
		<stop  offset="0" style="stop-color:#906F50"/>
		<stop  offset="8.180001e-02" style="stop-color:#8D744C"/>
		<stop  offset="0.1864" style="stop-color:#89704C"/>
		<stop  offset="0.3364" style="stop-color:#8A704C"/>
		<stop  offset="0.4227" style="stop-color:#D2C0B4"/>
		<stop  offset="0.5163" style="stop-color:#A58871"/>
		<stop  offset="0.5651" style="stop-color:#906F50"/>
		<stop  offset="0.6233" style="stop-color:#8D744C"/>
		<stop  offset="0.8257" style="stop-color:#89704C"/>
		<stop  offset="1" style="stop-color:#8A704C"/>
	</linearGradient>
	<path class="st0" d="M13.5,45.6c0.1-0.3,0.1-0.5,0.3-0.9c9.4,0,18.8,0,28.3,0c0-13.5,0-27,0-40.6c-4.6,0-9.4,0-14.1,0
		C28,3.7,28,3.4,28.2,3.1c4.8,0,9.7,0,14.6,0c0,14.1,0,28.3,0,42.3C33.1,45.6,23.3,45.6,13.5,45.6z M0.7,3.4c0,14.1,0,28.1,0,42.3
		c4,0,8.1,0,12.1,0c0.1-0.3,0.1-0.5,0.3-0.9c-3.9,0-7.6,0-11.5,0c0-0.4,0-40.5,0-40.6c8.5,0,17,0,25.7,0c0.1-0.3,0.3-0.6,0.4-0.9
		C18.6,3.4,9.6,3.4,0.7,3.4z M3.9,13.5C5,13.6,5.7,14,6.2,15c0.4,0.6,0.6,1.2,0.9,1.9c0.9,2.6,1.9,5.2,3,7.6c1.7,4.5,3.5,9,5.2,13.5
		c0,0.1,0.1,0.1,0.1,0.1c0.1,0,0.3,0,0.4,0c0-0.1,0.1-0.1,0.1-0.1c0.4-0.9,0.8-1.7,1.2-2.5c0.1-0.4,0.3-0.6,0.4-0.9
		c1.5-4.4,3.1-8.8,4.6-13.2c0.1-0.1,0.1-0.4,0.1-0.6c0-0.3-0.1-0.4-0.3-0.6c-0.1-0.1-0.1-0.3-0.1-0.4c-0.4,1.2-0.8,2.2-1.2,3.2
		c-0.4,1-0.8,2.2-1.2,3.2s-0.8,2.2-1.2,3.2c-0.4,1-0.8,2.2-1.2,3.2c-0.1-0.1-0.1-0.1-0.1-0.3c-0.8-1.9-1.4-3.9-2.2-5.8
		c-1.2-3.2-2.5-6.3-3.5-9.5c-0.3-0.6-0.4-1.3-0.6-1.9c-0.1-0.5,0-0.9,0.4-1.2c0.1-0.1,0.4-0.3,0.6-0.4c0.3-0.1,0.6-0.3,0.9-0.3
		c0.1-0.1,0.4-0.1,0.6-0.1c0-0.1,0-0.1,0-0.3c-0.3-0.1-9.7,0-9.8,0c0,0.1,0,0.1,0,0.4C3.7,13.3,3.8,13.5,3.9,13.5z M32.7,13.3
		c0.4,0.1,0.6,0.1,0.9,0.1c0.5,0.1,1,0.4,1.4,0.8c0.4,0.3,0.5,0.5,0.5,1c0,0.5,0,0.9-0.1,1.4c-0.1,0.6-0.4,1.4-0.5,2.2
		c-1.2,3.9-2.5,7.7-3.7,11.5c-0.3,0.6-0.5,1.4-0.6,2.1c0,0.1-0.1,0.1-0.1,0.3c-0.1-0.1-0.1-0.1-0.1-0.3c-0.9-2.3-1.7-4.8-2.6-7.1
		c-0.6-1.8-1.4-3.7-1.9-5.5c-0.6-1.4-1.2-2.8-1.5-4.3c0-0.1-0.1-0.1-0.1-0.3c0,0.1-0.1,0.1-0.1,0.1c-0.6,1.8-1.2,3.6-1.8,5.3
		c0,0.1,0,0.1,0,0.3c0.8,2.2,1.7,4.5,2.5,6.8c1.2,3.4,2.5,6.7,3.6,10.1c0,0.1,0.1,0.1,0.1,0.3c0.1,0,0.3,0,0.4,0
		c0-0.1,0.1-0.1,0.1-0.1c0.4-0.9,0.8-1.7,1.2-2.6c0.1-0.3,0.1-0.4,0.3-0.6c0.5-1.4,1-3,1.4-4.4c1.3-3.7,2.6-7.4,3.7-11.1
		c0.3-0.9,0.5-1.7,0.9-2.6c0.4-0.8,0.8-1.5,1.3-2.2c0.5-0.6,1.2-0.9,1.9-1.2c0.1,0,0.3-0.1,0.4-0.1c0-0.1,0-0.1,0-0.4
		c-0.3,0-7.5,0-7.6,0c0,0.1,0,0.1,0,0.3C32.6,13.3,32.6,13.3,32.7,13.3z M17.5,13.5c1.2,0.3,1.9,0.9,2.5,1.9
		c0.1,0.3,0.3,0.4,0.4,0.6c0.4,1.2,0.9,2.3,1.4,3.5c0,0.1,0.1,0.1,0.1,0.1c0-0.1,0.1-0.1,0.1-0.1c0.1-0.4,0.3-0.8,0.4-1.2
		c0.5-1.4,0.9-2.7,1.4-4.1c0-0.1,0.1-0.1,0.1-0.3c-0.1-0.4-0.1-0.6-0.3-1c-2.3,0-4.6,0-7,0c0,0.1,0,0.3,0,0.4
		C16.8,13.5,17.1,13.5,17.5,13.5z"/>
	
		<linearGradient id="SVGID_2_" gradientUnits="userSpaceOnUse" x1="57.4133" y1="542.0342" x2="264.6942" y2="443.1663" gradientTransform="matrix(1 0 0 -1 0 507.9)">
		<stop  offset="0" style="stop-color:#906E50"/>
		<stop  offset="8.180001e-02" style="stop-color:#8D744C"/>
		<stop  offset="0.1864" style="stop-color:#8B6F4C"/>
		<stop  offset="0.3364" style="stop-color:#8C704C"/>
		<stop  offset="0.4227" style="stop-color:#D2C0B3"/>
		<stop  offset="0.5163" style="stop-color:#A68971"/>
		<stop  offset="0.5651" style="stop-color:#906E50"/>
		<stop  offset="0.6233" style="stop-color:#8D744C"/>
		<stop  offset="0.8257" style="stop-color:#8B6F4C"/>
		<stop  offset="1" style="stop-color:#8C704C"/>
	</linearGradient>
	<path class="st1" d="M65.5,31.4c5,0,7.9-2.7,7.9-7.4c0-4.3-3.1-6.3-7.9-6.3h-4c0.1,2.7,0.1,4.3,0.1,7.1c0,2.6,0,4-0.1,6.6H65.5
		L65.5,31.4z M63.1,24.4c0-2.1,0-4,0-5.4h1.9c4.1,0,6.6,1.7,6.6,5.4c0,3.9-2.2,5.7-6.3,5.7c-0.6,0-1.8,0-2.2,0
		C63.1,28.3,63.1,26.4,63.1,24.4 M80.3,19c2.1,0,4.5,0,5.8,0v-1.4h-7.4c0.1,2.7,0.1,4.3,0.1,7.1c0,2.6,0,4-0.1,6.6h7.5l0.6-1.4
		C85.5,30,82.5,30,80.6,30c0-1.7,0-3.2,0-5c1.9,0,4.3,0,5.5,0.1v-1.4c-1.3,0.1-3.7,0.1-5.5,0.1C80.2,22,80.2,20.6,80.3,19
		 M99.3,18.2c-0.9-0.5-2.1-0.8-3.5-0.8c-2.7,0-4.5,1.7-4.5,3.5c0,1.7,0.9,2.7,2.7,3.6l1.8,0.9c1.7,0.8,2.2,1.4,2.2,2.7
		c0,1.2-1.2,2.2-3,2.2c-1.4,0-2.5-0.4-3.6-0.9l-0.5,1.3c1.2,0.6,2.6,0.9,4.3,0.9c2.5,0,4.5-1.5,4.5-3.7c0-1.8-0.8-3-2.8-3.9
		l-1.5-0.6c-1.9-0.9-2.3-1.5-2.3-2.6c0-1.2,0.9-1.9,3-1.9c1.2,0,2.2,0.4,3,0.8L99.3,18.2z M106.7,31.4c-0.1-2.6-0.1-4-0.1-6.6
		c0-2.7,0-4.4,0.1-7.1h-1.7c0.1,2.7,0.1,4.3,0.1,7.1c0,2.6,0,4-0.1,6.6H106.7 M123.6,30.8c-0.1-0.9-0.1-1.9-0.1-2.7
		c0-0.9,0-1.7,0.1-2.5H122c0.1,0.6,0.1,1.3,0.1,2.2c0,0.9,0,1.4-0.1,2.2c-0.6,0.3-1.4,0.4-2.6,0.4c-2.8,0-5.5-2.2-5.5-5.8
		c0-3.5,2.1-5.8,5.9-5.8c1.2,0,2.5,0.4,3.5,0.8l0.5-1.3c-1.2-0.5-2.5-0.8-4-0.8c-4.6,0-7.6,3.1-7.6,7.5c0,4,3.5,6.7,7,6.7
		C120.8,31.5,122.4,31.4,123.6,30.8 M138.9,17.6c0.1,3.4,0.1,5.9,0.1,11c-1.8-2.6-4.6-6.7-7.7-11h-1.8c0.1,2.7,0.1,4.3,0.1,7.1
		c0,2.6,0,4-0.1,6.6h1.5c-0.1-3.6-0.1-6.2-0.1-11.6c2.2,3,5.2,7.4,8.1,11.6h1.4c-0.1-2.6-0.1-4-0.1-6.6c0-2.7,0-4.3,0.1-7.1H138.9
		 M147.8,19c2.1,0,4.5,0,5.8,0v-1.4h-7.4c0.1,2.7,0.1,4.3,0.1,7.1c0,2.6,0,4-0.1,6.6h7.5l0.6-1.4C152.9,30,150,30,148,30
		c0-1.7,0-3.2,0-5c1.9,0,4.3,0,5.5,0.1v-1.4c-1.3,0.1-3.7,0.1-5.5,0.1C147.8,22,147.8,20.6,147.8,19 M162.9,31.4
		c5,0,7.9-2.7,7.9-7.4c0-4.3-3.1-6.3-7.9-6.3h-4c0.1,2.7,0.1,4.3,0.1,7.1c0,2.6,0,4-0.1,6.6H162.9L162.9,31.4z M160.5,24.4
		c0-2.1,0-4,0-5.4h1.9c4.1,0,6.6,1.7,6.6,5.4c0,3.9-2.2,5.7-6.3,5.7c-0.6,0-1.8,0-2.2,0C160.5,28.3,160.5,26.4,160.5,24.4
		 M178.9,24.8c0,2.6,0,4-0.1,6.6h3.7c3.6,0,5.5-1.4,5.5-4c0-1.7-1.4-3-3.2-3.4c1.5-0.3,2.6-1.4,2.6-3c0-2.1-1.8-3.4-5-3.4h-3.6
		C178.9,20.4,178.9,22,178.9,24.8 M182.2,18.9c2.5,0,3.6,0.6,3.6,2.2s-1.2,2.5-3.6,2.5c-0.6,0-1.3,0-1.7,0c0-1.7,0-3.2,0-4.6H182.2z
		 M182.2,25c2.7,0,4.1,0.9,4.1,2.6c0,1.7-1,2.6-4,2.6c-0.6,0-1.4,0-1.8,0c0-1.7,0-3.4,0-5.2C180.9,25,181.7,25,182.2,25 M191,17.6
		c1.7,2.2,3.7,5.2,5.2,7.4c0,1.9,0,4.3-0.1,6.5h1.7c-0.1-2.2-0.1-4.5-0.1-6.5c1.7-2.3,3.7-5.3,5.4-7.4h-1.9c-1,1.4-3,4.3-4.1,6.1
		c-1.2-1.7-3.1-4.6-4-6.1C192.9,17.6,191,17.6,191,17.6z M215.2,31.5c1-3,2.1-5.8,3.1-8.5c0.8,2.1,1.8,5.3,2.8,8.5h1.7
		c1.4-4,3.5-9.9,4.8-13.8h-1.8c-1,3.2-2.7,8.6-3.7,12.1c-1.2-3.6-2.8-8.9-3.9-12.1h-1.9c0.4,1,0.9,2.5,1.3,3.5
		c-0.9,2.5-2.3,6.1-3.2,8.6c-1.2-3.6-3-9.5-4-12.1h-1.8c1.3,3.4,3.4,9.4,4.8,13.8L215.2,31.5L215.2,31.5L215.2,31.5z M238.1,17.5
		c-3.7,0-6.8,2.7-6.8,7.4c0,4.3,2.8,6.8,6.8,6.8c3.7,0,6.8-2.6,6.8-7.2C244.8,20.2,241.9,17.5,238.1,17.5 M238.1,18.8
		c2.8,0,5,2.1,5,5.8s-2.1,5.8-5,5.8c-2.8,0-5-2.1-5-5.8C232.9,21,235,18.8,238.1,18.8 M250.1,17.6c0.1,2.2,0.1,4,0.1,5.7
		c0,1.2,0,2.2,0,3.2c0,3.5,2.6,5,5.4,5c3.1,0,5.4-1.8,5.4-5c0-1-0.1-2.2-0.1-3.2c0-1.7,0-3.7,0.1-5.7h-1.5c0.1,2.7,0.1,5.9,0.1,8.6
		c0,3-1.8,3.9-3.9,3.9s-3.9-1.2-3.9-3.9s0-5.9,0.1-8.6C252,17.6,250.1,17.6,250.1,17.6z M268.4,30.1c0-1.8,0-3.2,0-5.3
		c0-2.7,0-4.4,0.1-7.1h-1.7c0.1,2.7,0.1,4.3,0.1,7.1c0,2.6,0,4-0.1,6.6h7.5L275,30C273.4,30,270.5,30.1,268.4,30.1 M279.4,17.6
		c0.1,2.7,0.1,4.3,0.1,7.1c0,2.6,0,4-0.1,6.6h1.7c-0.1-2.5-0.1-3.7-0.1-6.1c1.9,0,4.4,0,5.5,0.1v-1.4c-1.3,0.1-3.7,0.1-5.5,0.1
		c0-1.7,0-3.5,0-5c2.1,0,4.5,0,5.8,0v-1.4H279.4 M293.4,19c2.1,0,4.5,0,5.8,0v-1.4h-7.4c0.1,2.7,0.1,4.3,0.1,7.1c0,2.6,0,4-0.1,6.6
		h7.5l0.6-1.4c-1.4,0.1-4.4,0.1-6.3,0.1c0-1.7,0-3.2,0-5c1.9,0,4.3,0,5.5,0.1v-1.4c-1.3,0.1-3.7,0.1-5.5,0.1
		C293.4,22,293.4,20.6,293.4,19"/>
</g>
</svg>
