<?xml version="1.0" encoding="utf-8"?>
<!-- Generator: Adobe Illustrator 23.1.0, SVG Export Plug-In . SVG Version: 6.00 Build 0)  -->
<svg version="1.1" id="Layer_1" xmlns="http://www.w3.org/2000/svg" xmlns:xlink="http://www.w3.org/1999/xlink" x="0px" y="0px"
	 viewBox="0 0 345 46" style="enable-background:new 0 0 345 46;" xml:space="preserve">
<style type="text/css">
	.st0{fill-rule:evenodd;clip-rule:evenodd;fill:url(#SVGID_1_);}
	.st1{fill-rule:evenodd;clip-rule:evenodd;fill:url(#SVGID_2_);}
</style>
<g>
	
		<linearGradient id="SVGID_1_" gradientUnits="userSpaceOnUse" x1="-11.9056" y1="-439.8533" x2="50.7545" y2="-409.9661" gradientTransform="matrix(1 0 0 1 0 442.8)">
		<stop  offset="0" style="stop-color:#906F50"/>
		<stop  offset="8.180001e-02" style="stop-color:#8D744C"/>
		<stop  offset="0.1864" style="stop-color:#89704C"/>
		<stop  offset="0.3364" style="stop-color:#8A704C"/>
		<stop  offset="0.4227" style="stop-color:#D2C0B4"/>
		<stop  offset="0.5163" style="stop-color:#A58871"/>
		<stop  offset="0.5651" style="stop-color:#906F50"/>
		<stop  offset="0.6233" style="stop-color:#8D744C"/>
		<stop  offset="0.8257" style="stop-color:#89704C"/>
		<stop  offset="1" style="stop-color:#8A704C"/>
	</linearGradient>
	<path class="st0" d="M9.9,32.8c0.1-0.2,0.1-0.4,0.2-0.7c7.3,0,14.6,0,21.9,0c0-10.5,0-20.9,0-31.5c-3.6,0-7.3,0-10.9,0
		c0.1-0.3,0.1-0.5,0.2-0.7c3.7,0,7.5,0,11.3,0c0,10.9,0,21.9,0,32.8C25.1,32.8,17.5,32.8,9.9,32.8z M0,0.1C0,11,0,21.9,0,32.9
		c3.1,0,6.3,0,9.4,0c0.1-0.2,0.1-0.4,0.2-0.7c-3,0-5.9,0-8.9,0c0-0.3,0-31.4,0-31.5c6.6,0,13.2,0,19.9,0c0.1-0.2,0.2-0.5,0.3-0.7
		C13.9,0.1,6.9,0.1,0,0.1z M2.5,7.9C3.3,8,3.9,8.3,4.3,9.1C4.6,9.6,4.8,10,5,10.6c0.7,2,1.5,4,2.3,5.9c1.3,3.5,2.7,7,4,10.5
		c0,0.1,0.1,0.1,0.1,0.1c0.1,0,0.2,0,0.3,0c0-0.1,0.1-0.1,0.1-0.1c0.3-0.7,0.6-1.3,0.9-1.9c0.1-0.3,0.2-0.5,0.3-0.7
		c1.2-3.4,2.4-6.8,3.6-10.2c0.1-0.1,0.1-0.3,0.1-0.5s-0.1-0.3-0.2-0.5c-0.1-0.1-0.1-0.2-0.1-0.3c-0.3,0.9-0.6,1.7-0.9,2.5
		c-0.3,0.8-0.6,1.7-0.9,2.5c-0.3,0.8-0.6,1.7-0.9,2.5c-0.3,0.8-0.6,1.7-0.9,2.5c-0.1-0.1-0.1-0.1-0.1-0.2c-0.6-1.5-1.1-3-1.7-4.5
		c-0.9-2.5-1.9-4.9-2.7-7.4c-0.2-0.5-0.3-1-0.5-1.5c-0.1-0.4,0-0.7,0.3-0.9c0.1-0.1,0.3-0.2,0.5-0.3C8.8,8,9.1,7.9,9.3,7.9
		c0.1-0.1,0.3-0.1,0.5-0.1c0-0.1,0-0.1,0-0.2c-0.2-0.1-7.5,0-7.6,0c0,0.1,0,0.1,0,0.3C2.3,7.8,2.4,7.9,2.5,7.9z M24.8,7.8
		c0.3,0.1,0.5,0.1,0.7,0.1c0.4,0.1,0.8,0.3,1.1,0.6C26.9,8.7,27,8.9,27,9.3s0,0.7-0.1,1.1c-0.1,0.5-0.3,1.1-0.4,1.7
		c-0.9,3-1.9,6-2.9,8.9c-0.2,0.5-0.4,1.1-0.5,1.6c0,0.1-0.1,0.1-0.1,0.2c-0.1-0.1-0.1-0.1-0.1-0.2c-0.7-1.8-1.3-3.7-2-5.5
		c-0.5-1.4-1.1-2.9-1.5-4.3c-0.5-1.1-0.9-2.2-1.2-3.3c0-0.1-0.1-0.1-0.1-0.2c0,0.1-0.1,0.1-0.1,0.1c-0.5,1.4-0.9,2.8-1.4,4.1
		c0,0.1,0,0.1,0,0.2c0.6,1.7,1.3,3.5,1.9,5.3c0.9,2.6,1.9,5.2,2.8,7.8c0,0.1,0.1,0.1,0.1,0.2c0.1,0,0.2,0,0.3,0
		c0-0.1,0.1-0.1,0.1-0.1c0.3-0.7,0.6-1.3,0.9-2c0.1-0.2,0.1-0.3,0.2-0.5c0.4-1.1,0.8-2.3,1.1-3.4c1-2.9,2-5.7,2.9-8.6
		c0.2-0.7,0.4-1.3,0.7-2c0.3-0.6,0.6-1.2,1-1.7s0.9-0.7,1.5-0.9c0.1,0,0.2-0.1,0.3-0.1c0-0.1,0-0.1,0-0.3c-0.2,0-5.8,0-5.9,0
		c0,0.1,0,0.1,0,0.2C24.7,7.8,24.7,7.8,24.8,7.8z M13,7.9c0.9,0.2,1.5,0.7,1.9,1.5c0.1,0.2,0.2,0.3,0.3,0.5c0.3,0.9,0.7,1.8,1.1,2.7
		c0,0.1,0.1,0.1,0.1,0.1c0-0.1,0.1-0.1,0.1-0.1c0.1-0.3,0.2-0.6,0.3-0.9c0.4-1.1,0.7-2.1,1.1-3.2c0-0.1,0.1-0.1,0.1-0.2
		c-0.1-0.3-0.1-0.5-0.2-0.8c-1.8,0-3.6,0-5.4,0c0,0.1,0,0.2,0,0.3C12.5,7.9,12.7,7.9,13,7.9z"/>
	
		<linearGradient id="SVGID_2_" gradientUnits="userSpaceOnUse" x1="43.9609" y1="-471.8006" x2="204.633" y2="-395.1639" gradientTransform="matrix(1 0 0 1 0 442.8)">
		<stop  offset="0" style="stop-color:#906E50"/>
		<stop  offset="8.180001e-02" style="stop-color:#8D744C"/>
		<stop  offset="0.1864" style="stop-color:#8B6F4C"/>
		<stop  offset="0.3364" style="stop-color:#8C704C"/>
		<stop  offset="0.4227" style="stop-color:#D2C0B3"/>
		<stop  offset="0.5163" style="stop-color:#A68971"/>
		<stop  offset="0.5651" style="stop-color:#906E50"/>
		<stop  offset="0.6233" style="stop-color:#8D744C"/>
		<stop  offset="0.8257" style="stop-color:#8B6F4C"/>
		<stop  offset="1" style="stop-color:#8C704C"/>
	</linearGradient>
	<path class="st1" d="M50.2,21.8c3.9,0,6.1-2.1,6.1-5.7c0-3.3-2.4-4.9-6.1-4.9h-3.1c0.1,2.1,0.1,3.3,0.1,5.5c0,2,0,3.1-0.1,5.1H50.2
		L50.2,21.8z M48.4,16.4c0-1.6,0-3.1,0-4.2h1.5c3.2,0,5.1,1.3,5.1,4.2c0,3-1.7,4.4-4.9,4.4c-0.5,0-1.4,0-1.7,0
		C48.4,19.4,48.4,17.9,48.4,16.4 M61.7,12.2c1.6,0,3.5,0,4.5,0v-1.1h-5.7c0.1,2.1,0.1,3.3,0.1,5.5c0,2,0,3.1-0.1,5.1h5.8l0.5-1.1
		c-1.1,0.1-3.4,0.1-4.9,0.1c0-1.3,0-2.5,0-3.9c1.5,0,3.3,0,4.3,0.1v-1.1c-1,0.1-2.9,0.1-4.3,0.1C61.6,14.5,61.6,13.4,61.7,12.2
		 M76.4,11.6c-0.7-0.4-1.6-0.6-2.7-0.6c-2.1,0-3.5,1.3-3.5,2.7c0,1.3,0.7,2.1,2.1,2.8l1.4,0.7c1.3,0.6,1.7,1.1,1.7,2.1
		c0,0.9-0.9,1.7-2.3,1.7c-1.1,0-1.9-0.3-2.8-0.7l-0.4,1c0.9,0.5,2,0.7,3.3,0.7c1.9,0,3.5-1.2,3.5-2.9c0-1.4-0.6-2.3-2.2-3l-1.2-0.5
		c-1.5-0.7-1.8-1.2-1.8-2c0-0.9,0.7-1.5,2.3-1.5c0.9,0,1.7,0.3,2.3,0.6L76.4,11.6z M82.2,21.8c-0.1-2-0.1-3.1-0.1-5.1
		c0-2.1,0-3.4,0.1-5.5h-1.3c0.1,2.1,0.1,3.3,0.1,5.5c0,2,0,3.1-0.1,5.1H82.2 M95.3,21.3c-0.1-0.7-0.1-1.5-0.1-2.1
		c0-0.7,0-1.3,0.1-1.9H94c0.1,0.5,0.1,1,0.1,1.7s0,1.1-0.1,1.7c-0.5,0.2-1.1,0.3-2,0.3c-2.2,0-4.3-1.7-4.3-4.5
		c0-2.7,1.6-4.5,4.6-4.5c0.9,0,1.9,0.3,2.7,0.6l0.4-1c-0.9-0.4-1.9-0.6-3.1-0.6c-3.6,0-5.9,2.4-5.9,5.8c0,3.1,2.7,5.2,5.4,5.2
		C93.1,21.9,94.3,21.8,95.3,21.3 M107.1,11.1c0.1,2.6,0.1,4.6,0.1,8.5c-1.4-2-3.6-5.2-6-8.5h-1.4c0.1,2.1,0.1,3.3,0.1,5.5
		c0,2,0,3.1-0.1,5.1h1.2c-0.1-2.8-0.1-4.8-0.1-9c1.7,2.3,4,5.7,6.3,9h1.1c-0.1-2-0.1-3.1-0.1-5.1c0-2.1,0-3.3,0.1-5.5H107.1
		 M114,12.2c1.6,0,3.5,0,4.5,0v-1.1h-5.7c0.1,2.1,0.1,3.3,0.1,5.5c0,2,0,3.1-0.1,5.1h5.8l0.5-1.1c-1.1,0.1-3.4,0.1-4.9,0.1
		c0-1.3,0-2.5,0-3.9c1.5,0,3.3,0,4.3,0.1v-1.1c-1,0.1-2.9,0.1-4.3,0.1C114,14.5,114,13.4,114,12.2 M125.7,21.8
		c3.9,0,6.1-2.1,6.1-5.7c0-3.3-2.4-4.9-6.1-4.9h-3.1c0.1,2.1,0.1,3.3,0.1,5.5c0,2,0,3.1-0.1,5.1H125.7L125.7,21.8z M123.9,16.4
		c0-1.6,0-3.1,0-4.2h1.5c3.2,0,5.1,1.3,5.1,4.2c0,3-1.7,4.4-4.9,4.4c-0.5,0-1.4,0-1.7,0C123.9,19.4,123.9,17.9,123.9,16.4
		 M138.1,16.7c0,2,0,3.1-0.1,5.1h2.9c2.8,0,4.3-1.1,4.3-3.1c0-1.3-1.1-2.3-2.5-2.6c1.2-0.2,2-1.1,2-2.3c0-1.6-1.4-2.6-3.9-2.6H138
		C138.1,13.3,138.1,14.5,138.1,16.7 M140.7,12.1c1.9,0,2.8,0.5,2.8,1.7s-0.9,1.9-2.8,1.9c-0.5,0-1,0-1.3,0c0-1.3,0-2.5,0-3.6H140.7z
		 M140.7,16.8c2.1,0,3.2,0.7,3.2,2s-0.8,2-3.1,2c-0.5,0-1.1,0-1.4,0c0-1.3,0-2.6,0-4C139.7,16.8,140.3,16.8,140.7,16.8 M147.5,11.1
		c1.3,1.7,2.9,4,4,5.7c0,1.5,0,3.3-0.1,5h1.3c-0.1-1.7-0.1-3.5-0.1-5c1.3-1.8,2.9-4.1,4.2-5.7h-1.5c-0.8,1.1-2.3,3.3-3.2,4.7
		c-0.9-1.3-2.4-3.6-3.1-4.7C149,11.1,147.5,11.1,147.5,11.1z M166.3,21.9c0.8-2.3,1.6-4.5,2.4-6.6c0.6,1.6,1.4,4.1,2.2,6.6h1.3
		c1.1-3.1,2.7-7.7,3.7-10.7h-1.4c-0.8,2.5-2.1,6.7-2.9,9.4c-0.9-2.8-2.2-6.9-3-9.4h-1.5c0.3,0.8,0.7,1.9,1,2.7
		c-0.7,1.9-1.8,4.7-2.5,6.7c-0.9-2.8-2.3-7.4-3.1-9.4h-1.4c1,2.6,2.6,7.3,3.7,10.7L166.3,21.9L166.3,21.9L166.3,21.9z M184,11
		c-2.9,0-5.3,2.1-5.3,5.7c0,3.3,2.2,5.3,5.3,5.3c2.9,0,5.3-2,5.3-5.6C189.2,13.1,187,11,184,11 M184,12c2.2,0,3.9,1.6,3.9,4.5
		S186.3,21,184,21c-2.2,0-3.9-1.6-3.9-4.5C180,13.7,181.6,12,184,12 M193.3,11.1c0.1,1.7,0.1,3.1,0.1,4.4c0,0.9,0,1.7,0,2.5
		c0,2.7,2,3.9,4.2,3.9c2.4,0,4.2-1.4,4.2-3.9c0-0.8-0.1-1.7-0.1-2.5c0-1.3,0-2.9,0.1-4.4h-1.2c0.1,2.1,0.1,4.6,0.1,6.7
		c0,2.3-1.4,3-3,3s-3-0.9-3-3s0-4.6,0.1-6.7C194.8,11.1,193.3,11.1,193.3,11.1z M207.5,20.8c0-1.4,0-2.5,0-4.1c0-2.1,0-3.4,0.1-5.5
		h-1.3c0.1,2.1,0.1,3.3,0.1,5.5c0,2,0,3.1-0.1,5.1h5.8l0.5-1.1C211.4,20.7,209.1,20.8,207.5,20.8 M216,11.1c0.1,2.1,0.1,3.3,0.1,5.5
		c0,2,0,3.1-0.1,5.1h1.3c-0.1-1.9-0.1-2.9-0.1-4.7c1.5,0,3.4,0,4.3,0.1V16c-1,0.1-2.9,0.1-4.3,0.1c0-1.3,0-2.7,0-3.9
		c1.6,0,3.5,0,4.5,0v-1.1H216 M226.9,12.2c1.6,0,3.5,0,4.5,0v-1.1h-5.7c0.1,2.1,0.1,3.3,0.1,5.5c0,2,0,3.1-0.1,5.1h5.8l0.5-1.1
		c-1.1,0.1-3.4,0.1-4.9,0.1c0-1.3,0-2.5,0-3.9c1.5,0,3.3,0,4.3,0.1v-1.1c-1,0.1-2.9,0.1-4.3,0.1C226.9,14.5,226.9,13.4,226.9,12.2"
		/>
</g>
</svg>
